PathFileType	4	(X/Y/Z)	/Users/itak/Documents/Research/Walk-IL/dataset/trc/00470_00167.trc
DataRate	CameraRate	NumFrames	NumMarkers	Units	OrigDataRate	OrigDataStartFrame	OrigNumFrames
100.000000	100.000000	4	53	mm	100.000000	0	632
Frame#	Time	RPSI			LPSI			L3			STRN			T10			C7			CLAV			RBAK			LBAK			LSHO			LUPA			LAEL			LAOL			LWTS			LWPS			LFRA			LIFD			LHPS			LHTS			RSHO			RUPA			RAEL			RAOL			RWTS			RWPS			RFRA			RIFD			RHTS			RHPS			RBHD			LFHD			RFHD			LBHD			LHIP			RHIP			RASI			LASI			LKNE			LTHI			LANK			LTIP			LTOE			LMT1			LMT5			LHEE			RKNE			RTHI			RANK			RTIP			RTOE			RMT1			RMT5			RHEE			
		X1	Y1	Z1	X2	Y2	Z2	X3	Y3	Z3	X4	Y4	Z4	X5	Y5	Z5	X6	Y6	Z6	X7	Y7	Z7	X8	Y8	Z8	X9	Y9	Z9	X10	Y10	Z10	X11	Y11	Z11	X12	Y12	Z12	X13	Y13	Z13	X14	Y14	Z14	X15	Y15	Z15	X16	Y16	Z16	X17	Y17	Z17	X18	Y18	Z18	X19	Y19	Z19	X20	Y20	Z20	X21	Y21	Z21	X22	Y22	Z22	X23	Y23	Z23	X24	Y24	Z24	X25	Y25	Z25	X26	Y26	Z26	X27	Y27	Z27	X28	Y28	Z28	X29	Y29	Z29	X30	Y30	Z30	X31	Y31	Z31	X32	Y32	Z32	X33	Y33	Z33	X34	Y34	Z34	X35	Y35	Z35	X36	Y36	Z36	X37	Y37	Z37	X38	Y38	Z38	X39	Y39	Z39	X40	Y40	Z40	X41	Y41	Z41	X42	Y42	Z42	X43	Y43	Z43	X44	Y44	Z44	X45	Y45	Z45	X46	Y46	Z46	X47	Y47	Z47	X48	Y48	Z48	X49	Y49	Z49	X50	Y50	Z50	X51	Y51	Z51	X52	Y52	Z52	X53	Y53	Z53	

1	0	-1258.62939453125	958.9314575195312	-481.3373718261719	-1227.5673828125	956.182861328125	-618.37890625	-1236.662841796875	1050.8974609375	-538.218505859375	-977.0673828125	1254.029663085938	-497.9102172851562	-1256.740844726562	1173.647827148438	-549.4014282226562	-1199.751342773438	1443.21044921875	-525.57470703125	-1015.657592773438	1365.34765625	-506.7487487792969	-1278.99609375	1322.915161132812	-445.4546508789062	-1215.120971679688	1397.114379882812	-629.0089721679688	-1100.940551757812	1422.071533203125	-688.6290893554688	-1087.793334960938	1303.297607421875	-787.5051879882812	-1046.630493164062	1087.3818359375	-810.5928344726562	-1135.824096679688	1068.338012695312	-761.1806030273438	-964.4623413085938	887.8479614257812	-750.5256958007812	-998.4928588867188	877.9945068359375	-815.4302978515625	-1018.573364257812	1000.850341796875	-814.7715454101562	-925.6366577148438	748.7949829101562	-791.811767578125	-986.005859375	805.7523193359375	-826.5545654296875	-928.3829345703125	813.712646484375	-773.1613159179688	-1163.876220703125	1414.808959960938	-356.2499084472656	-1195.978271484375	1352.787841796875	-286.1972961425781	-1199.831176757812	1065.096313476562	-237.2146148681641	-1230.134765625	1047.177612304688	-295.01708984375	-1083.567504882812	862.2101440429688	-235.966796875	-1166.492309570312	845.92529296875	-209.6177062988281	-1198.795654296875	1006.927612304688	-227.26318359375	-1081.377319335938	706.5278930664062	-224.8686828613281	-1071.827880859375	765.755126953125	-219.6125640869141	-1148.585815429688	760.0347900390625	-205.2577362060547	-1134.201416015625	1645.346557617188	-427.7743225097656	-968.087158203125	1656.42822265625	-550.827880859375	-996.7612915039062	1659.125	-423.7354125976562	-1111.027099609375	1646.031127929688	-604.1009521484375	-1073.480712890625	859.88916015625	-707.3168334960938	-1173.294555664062	862.2124633789062	-321.3333129882812	-1055.67626953125	903.4541625976562	-358.4635009765625	-990.3583374023438	896.363525390625	-610.2022094726562	-1109.142822265625	445.3329467773438	-679.0125732421875	-1067.1171875	594.6011962890625	-691.344482421875	-1199.74609375	41.07959365844727	-687.4120483398438	-1123.3251953125	299.0960998535156	-695.617431640625	-977.4959106445312	43.79239654541016	-591.1719970703125	-1054.98583984375	50.85705184936523	-571.3499755859375	-1045.955810546875	44.78676986694336	-685.1168212890625	-1252.204956054688	47.14992523193359	-628.873779296875	-1144.991821289062	471.0070190429688	-325.3745422363281	-1129.1513671875	731.3496704101562	-296.2242126464844	-1209.129028320312	48.69018173217773	-309.5283813476562	-1150.244140625	330.3693542480469	-308.3095703125	-989.8528442382812	47.9427604675293	-325.1759643554688	-1047.43994140625	50.20112609863281	-371.6327514648438	-1081.626586914062	49.94828796386719	-268.0162353515625	-1267.833862304688	42.52105712890625	-362.8264770507812	
2	0.01	-1258.557495117188	958.9072265625	-481.2907409667969	-1227.467407226562	956.1744384765625	-618.2872314453125	-1236.599853515625	1050.861328125	-538.153076171875	-977.0386962890625	1254.096923828125	-497.682861328125	-1256.738525390625	1173.604614257812	-549.361328125	-1199.822143554688	1443.165283203125	-525.44677734375	-1015.661804199219	1365.379028320312	-506.5055847167969	-1279.059692382812	1322.846557617188	-445.4236145019531	-1215.079711914062	1397.111206054688	-628.9486694335938	-1100.86962890625	1422.096557617188	-688.4730224609375	-1087.736938476562	1303.292846679688	-787.255615234375	-1046.572509765625	1087.402587890625	-810.36474609375	-1135.80712890625	1068.387939453125	-761.0073852539062	-964.4085693359375	887.8187866210938	-750.0674438476562	-998.570068359375	877.9201049804688	-815.0988159179688	-1018.510864257812	1000.804016113281	-814.4794921875	-926.8778076171875	748.03466796875	-791.2086791992188	-986.0874633789062	805.61865234375	-826.1029052734375	-928.6674194335938	813.5113525390625	-772.658935546875	-1164.066284179688	1414.79345703125	-356.1038513183594	-1196.209228515625	1352.771484375	-286.0734252929688	-1199.86572265625	1065.0927734375	-236.9368438720703	-1230.148193359375	1047.1259765625	-294.7601318359375	-1083.381469726562	862.3274536132812	-235.5387420654297	-1166.309692382812	846.0004272460938	-209.2136993408203	-1198.828735351562	1006.949645996094	-226.8914031982422	-1081.034057617188	706.65576171875	-224.2858428955078	-1071.528564453125	765.9341430664062	-219.0881805419922	-1148.352416992188	760.1337280273438	-204.6787567138672	-1134.360717773438	1645.268188476562	-427.5002746582031	-968.0712280273438	1656.461303710938	-550.351318359375	-997.0177001953125	1659.04052734375	-423.2698364257812	-1110.91552734375	1646.05810546875	-603.7642822265625	-1073.272094726562	859.8284301757812	-707.1884765625	-1173.257446289062	862.1905517578125	-321.3257141113281	-1055.597900390625	903.452880859375	-358.3476867675781	-990.186767578125	896.3856201171875	-610.0103759765625	-1109.010986328125	445.3499145507812	-678.8960571289062	-1067.029663085938	594.6201171875	-691.2719116210938	-1199.74560546875	41.07856750488281	-687.4124145507812	-1123.27392578125	299.0702514648438	-695.5438842773438	-977.490478515625	43.7982063293457	-591.17138671875	-1055.000366210938	50.84419250488281	-571.3302612304688	-1045.95703125	44.79796600341797	-685.1072998046875	-1252.2001953125	47.13898468017578	-628.8868408203125	-1144.994873046875	471.0067443847656	-325.3118896484375	-1129.4873046875	731.3760986328125	-296.24951171875	-1209.141967773438	48.69321060180664	-309.5111389160156	-1150.232666015625	330.3472290039062	-308.2813110351562	-989.853271484375	47.94415664672852	-325.1750793457031	-1047.43994140625	50.20213317871094	-371.6263122558594	-1081.630615234375	49.94840240478516	-268.0066528320312	-1267.848510742188	42.517578125	-362.8016052246094	
3	0.02	-1258.473022460938	958.8779907226562	-481.2368774414062	-1227.340209960938	956.1621704101562	-618.177001953125	-1236.524169921875	1050.818969726562	-538.0695190429688	-977.034912109375	1254.177490234375	-497.396728515625	-1256.74072265625	1173.554931640625	-549.3017578125	-1199.910888671875	1443.112915039062	-525.2828979492188	-1015.681274414062	1365.419677734375	-506.2073059082031	-1279.140747070312	1322.762817382812	-445.3704528808594	-1215.031494140625	1397.105224609375	-628.865966796875	-1100.776977539062	1422.132934570312	-688.2736206054688	-1087.643432617188	1303.2958984375	-786.9630737304688	-1046.477416992188	1087.421508789062	-810.0477294921875	-1135.7890625	1068.45068359375	-760.7656860351562	-964.3862915039062	887.7774047851562	-749.5059814453125	-998.662353515625	877.8367309570312	-814.6709594726562	-1018.438598632812	1000.753662109375	-814.0983276367188	-928.9152221679688	746.7666625976562	-790.3104858398438	-986.2158813476562	805.4596557617188	-825.552490234375	-928.96044921875	813.3036499023438	-772.0592041015625	-1164.300659179688	1414.7783203125	-355.9216003417969	-1196.477172851562	1352.754638671875	-285.9198913574219	-1199.888671875	1065.102905273438	-236.5677642822266	-1230.157104492188	1047.06396484375	-294.4045104980469	-1083.12255859375	862.5066528320312	-234.9854888916016	-1166.046142578125	846.10791015625	-208.6661224365234	-1198.838500976562	1006.988586425781	-226.4150390625	-1080.5458984375	706.8429565429688	-223.5442962646484	-1071.113159179688	766.175048828125	-218.4177551269531	-1147.9931640625	760.2728881835938	-203.956298828125	-1134.56396484375	1645.17724609375	-427.1491088867188	-968.0783081054688	1656.505737304688	-549.7669067382812	-997.3255004882812	1658.947021484375	-422.701171875	-1110.818481445312	1646.102172851562	-603.3363037109375	-1073.0087890625	859.7648315429688	-707.031005859375	-1173.220458984375	862.1658325195312	-321.3043212890625	-1055.512084960938	903.46533203125	-358.2004089355469	-989.9871215820312	896.4088745117188	-609.771240234375	-1108.84765625	445.3672180175781	-678.7572021484375	-1066.896484375	594.6488647460938	-691.16845703125	-1199.7451171875	41.07852554321289	-687.412841796875	-1123.223510742188	299.0356140136719	-695.4495849609375	-977.4848022460938	43.80335235595703	-591.1690063476562	-1055.016357421875	50.83090972900391	-571.3092041015625	-1045.959228515625	44.81239318847656	-685.093994140625	-1252.192626953125	47.12327575683594	-628.903564453125	-1145.004760742188	471.00634765625	-325.2354125976562	-1129.809814453125	731.4102172851562	-296.2428588867188	-1209.155883789062	48.69596099853516	-309.48828125	-1150.22119140625	330.3207092285156	-308.2457885742188	-989.8538818359375	47.94608688354492	-325.1737670898438	-1047.437866210938	50.20305252075195	-371.616455078125	-1081.634887695312	49.94741439819336	-267.9962463378906	-1267.863403320312	42.51167678833008	-362.7776184082031	
4	0.03	-1258.382568359375	958.8451538085938	-481.1795043945312	-1227.190185546875	956.14599609375	-618.0555419921875	-1236.4404296875	1050.773559570312	-537.970458984375	-977.067138671875	1254.267211914062	-497.0618591308594	-1256.750610351562	1173.502807617188	-549.2190551757812	-1200.014404296875	1443.05712890625	-525.0892333984375	-1015.719787597656	1365.469482421875	-505.8662414550781	-1279.236694335938	1322.668579101562	-445.2893981933594	-1214.979614257812	1397.095458984375	-628.7591552734375	-1100.666015625	1422.182495117188	-688.0374755859375	-1087.511352539062	1303.309326171875	-786.6469116210938	-1046.3408203125	1087.433959960938	-809.6431884765625	-1135.769287109375	1068.522583007812	-760.45751953125	-964.4067993164062	887.7244262695312	-748.8663940429688	-998.7620849609375	877.7505493164062	-814.1588745117188	-1018.360229492188	1000.704956054688	-813.63720703125	-931.8640747070312	744.914306640625	-789.0863647460938	-986.3942260742188	805.2881469726562	-824.9321899414062	-929.2137451171875	813.1185302734375	-771.3984375	-1164.565307617188	1414.766357421875	-355.7132873535156	-1196.7626953125	1352.740844726562	-285.7417297363281	-1199.888916015625	1065.133056640625	-236.1145782470703	-1230.158325195312	1046.995483398438	-293.9463195800781	-1082.786499023438	862.7548217773438	-234.3242950439453	-1165.695068359375	846.24951171875	-207.9823760986328	-1198.808227539062	1007.047546386719	-225.8503112792969	-1079.907104492188	707.0942993164062	-222.6670532226562	-1070.578125	766.4774169921875	-217.6234130859375	-1147.494018554688	760.4555053710938	-203.1156311035156	-1134.800537109375	1645.079711914062	-426.7303466796875	-968.117919921875	1656.55908203125	-549.1075439453125	-997.6612548828125	1658.8525390625	-422.0625	-1110.7607421875	1646.166381835938	-602.83447265625	-1072.701782226562	859.705810546875	-706.8527221679688	-1173.190551757812	862.14111328125	-321.2624206542969	-1055.425903320312	903.4951782226562	-358.0252075195312	-989.7730712890625	896.4304809570312	-609.4991455078125	-1108.661743164062	445.3807678222656	-678.6052856445312	-1066.713256835938	594.6860961914062	-691.0338745117188	-1199.744995117188	41.08016967773438	-687.4140014648438	-1123.179077148438	298.9929504394531	-695.3375854492188	-977.4794311523438	43.80698394775391	-591.1640625	-1055.031982421875	50.81901931762695	-571.2877807617188	-1045.963012695312	44.82967758178711	-685.0771484375	-1252.18359375	47.10364151000977	-628.92333984375	-1145.023681640625	471.0061340332031	-325.1493530273438	-1130.06396484375	731.449951171875	-296.1860961914062	-1209.169311523438	48.69759368896484	-309.4620056152344	-1150.21240234375	330.291259765625	-308.2044067382812	-989.8544311523438	47.94822692871094	-325.1720275878906	-1047.4326171875	50.20380020141602	-371.6024780273438	-1081.63916015625	49.94511032104492	-267.9857482910156	-1267.876586914062	42.50325775146484	-362.7587890625	
